<svg width="39" height="29" viewBox="0 0 39 29" fill="none" xmlns="http://www.w3.org/2000/svg">
<path d="M34.2524 18.5345C34.2524 19.4421 33.2193 20.5577 32.3791 20.5577H31.614C31.6149 15.0034 31.6149 8.77668 31.614 7.67143C31.6137 7.6387 31.6196 7.60623 31.6312 7.57587C31.6429 7.54551 31.6601 7.51787 31.682 7.49451C31.7039 7.47116 31.73 7.45256 31.7587 7.43978C31.7875 7.427 31.8183 7.42029 31.8495 7.42003H34.0159C34.1459 7.42003 34.2525 7.53446 34.2525 7.6734L34.2524 18.5345ZM30.7223 22.5067C30.7223 23.0812 30.4542 24.0435 28.6577 24.0435C25.1762 24.0435 23.0391 21.1846 23.0391 19.1343C23.0391 19.1343 23.0352 12.5045 23.0352 7.67352C23.0348 7.64075 23.0407 7.60822 23.0523 7.57782C23.064 7.54741 23.0813 7.51973 23.1033 7.49636C23.1252 7.47299 23.1513 7.45441 23.1801 7.44167C23.209 7.42892 23.2399 7.42228 23.2712 7.42212H25.4401C25.5703 7.42212 25.6772 7.53581 25.6772 7.67562V18.3281C25.6772 20.0881 27.0062 21.5157 28.6445 21.5157H30.7235L30.7223 22.5067ZM34.1803 6.46468H31.6848C31.1542 6.46468 30.7221 6.92917 30.7221 7.49898V20.5588H28.643C27.4959 20.5588 26.5662 19.5598 26.5662 18.3278V7.49898C26.5662 6.92782 26.1347 6.46419 25.6031 6.46419H23.1065C22.5749 6.46419 22.1435 6.92782 22.1426 7.49898C22.1414 12.2208 22.1465 19.1345 22.1465 19.1345C22.1469 22.7686 25.9386 25 28.657 25C30.4804 25 31.6129 24.0426 31.6129 22.5002V21.5155H32.3787C33.7221 21.5155 35.143 19.9836 35.143 18.5345V7.49898C35.1443 6.92782 34.7127 6.46468 34.1803 6.46468ZM19.4317 20.3266C19.432 20.3593 19.4261 20.3918 19.4144 20.4221C19.4027 20.4525 19.3854 20.4801 19.3635 20.5034C19.3416 20.5267 19.3155 20.5453 19.2867 20.558C19.2579 20.5707 19.227 20.5773 19.1958 20.5775H17.0269C16.8949 20.5775 16.7892 20.4628 16.7898 20.3246V9.67204C16.7898 7.91211 15.4604 6.48451 13.8225 6.48451H11.7433V5.49332C11.7433 4.92006 12.0115 3.95646 13.808 3.95646C17.2896 3.95646 19.4273 6.81524 19.4273 8.86574C19.4273 8.86574 19.4317 15.5278 19.4317 20.3266ZM8.44876 20.5797C8.31678 20.5757 8.21125 20.4642 8.21278 20.3259V9.46671C8.21278 8.55903 9.24599 7.44195 10.0859 7.44195H10.8516C10.8504 15.3958 10.8504 19.4657 10.8516 20.3254C10.8522 20.3918 10.8277 20.4558 10.7834 20.5033C10.7391 20.5508 10.6787 20.578 10.6153 20.5789L8.44876 20.5797ZM20.3175 8.86586C20.318 5.23145 16.5262 3 13.8081 3C11.9843 3 10.8516 3.95732 10.8516 5.49985V6.48451H10.0862C8.74243 6.48451 7.32153 8.01644 7.32153 9.4656V20.501C7.32153 21.0722 7.75294 21.5358 8.28435 21.5358H10.7794C10.7949 21.5358 10.8081 21.5314 10.8237 21.5314C11.3336 21.5056 11.742 21.0555 11.742 20.501V7.44121H13.8215C14.9681 7.44121 15.8983 8.44017 15.8983 9.67217V20.5011C15.8983 21.0723 16.3298 21.5359 16.8611 21.5359H19.3581C19.8897 21.5359 20.3209 21.0735 20.3209 20.5011C20.3228 15.6913 20.3175 8.86586 20.3175 8.86586Z" fill="white"/>
</svg>


